<?xml version="1.0" standalone="no"?>
<!DOCTYPE svg PUBLIC "-//W3C//DTD SVG 20010904//EN"
 "http://www.w3.org/TR/2001/REC-SVG-20010904/DTD/svg10.dtd">
<svg version="1.0" xmlns="http://www.w3.org/2000/svg"
 width="1600.000000pt" height="900.000000pt" viewBox="0 0 1600.000000 900.000000"
 preserveAspectRatio="xMidYMid meet">

<g transform="translate(0.000000,900.000000) scale(0.100000,-0.100000)"
fill="#000000" stroke="none">
<path d="M7459 7529 c-264 -28 -665 -220 -1051 -505 -598 -440 -1008 -914
-1308 -1514 -160 -320 -270 -647 -317 -943 -20 -130 -21 -421 -1 -528 l15 -76
-56 -33 c-205 -122 -378 -294 -389 -386 -6 -54 32 -125 77 -144 67 -27 127 15
170 122 40 98 66 133 154 203 78 62 107 77 107 54 0 -23 95 -199 148 -272 118
-164 292 -297 472 -359 140 -48 319 -65 453 -43 318 52 680 209 1106 482 63
40 118 73 121 73 26 0 359 -302 595 -541 72 -72 198 -187 280 -255 321 -264
415 -324 680 -428 159 -62 238 -79 465 -97 445 -34 777 78 1155 390 116 96
205 177 240 219 l27 33 -53 -22 c-289 -115 -701 -218 -999 -249 -191 -20 -475
-9 -515 20 -5 4 -35 13 -65 20 -134 31 -310 118 -507 249 -151 100 -252 179
-548 426 -132 110 -302 249 -378 309 -112 88 -136 111 -125 121 7 7 65 54 128
105 702 568 1274 1316 1450 1895 123 405 113 751 -28 992 -57 96 -77 121 -160
195 -131 118 -226 153 -407 152 -175 0 -338 -48 -575 -170 -271 -140 -552
-383 -703 -610 -72 -109 -166 -290 -197 -379 -17 -50 -18 -60 -6 -83 30 -58
87 -92 152 -92 69 0 103 33 104 100 0 56 18 89 133 255 262 376 479 575 802
731 133 65 213 86 325 87 115 0 191 -34 279 -128 249 -266 241 -747 -20 -1294
-239 -500 -604 -904 -1332 -1474 l-187 -147 -88 44 c-253 127 -491 200 -737
227 -181 19 -548 -2 -795 -46 -47 -8 -88 -15 -92 -15 -11 0 -10 112 2 210 43
343 208 794 435 1185 84 146 249 393 345 520 211 279 540 614 805 820 197 153
332 224 522 275 98 26 169 68 187 111 17 40 4 114 -25 145 -49 52 -151 75
-270 63z m-1304 -3420 c220 -30 471 -116 693 -240 l83 -46 -88 -55 c-306 -190
-572 -293 -789 -305 -174 -10 -261 23 -383 145 -56 56 -89 99 -118 157 -39 75
-78 200 -85 270 l-3 30 220 31 c229 33 304 35 470 13z"/>
<path d="M11858 6413 c-67 -73 -472 -725 -665 -1073 -196 -353 -421 -802 -503
-1006 -17 -43 -36 -88 -40 -99 -5 -11 -14 -37 -20 -58 -15 -48 -30 -62 -166
-152 -204 -135 -332 -188 -364 -150 -12 15 -12 24 4 68 47 131 330 586 520
835 120 158 119 157 119 220 0 61 -9 86 -55 144 -33 43 -125 106 -165 114 -26
5 -33 -1 -83 -72 -235 -330 -451 -707 -526 -918 -25 -72 -33 -83 -93 -133
-224 -185 -447 -312 -501 -283 -32 17 -25 59 31 166 124 241 343 582 503 788
95 121 102 133 110 176 8 49 -7 101 -40 145 -33 42 -167 135 -195 135 -27 0
-141 -158 -291 -402 -372 -603 -468 -746 -576 -860 -105 -110 -155 -130 -211
-83 -67 57 -47 180 72 425 98 202 168 318 316 525 84 117 121 177 121 196 0
35 -76 147 -120 177 -73 49 -93 30 -263 -246 -134 -219 -203 -342 -302 -545
-90 -183 -110 -256 -109 -402 0 -96 4 -117 26 -165 28 -62 71 -103 137 -133
54 -24 157 -20 214 7 52 26 171 139 247 236 35 44 67 80 71 80 4 0 7 -34 7
-75 1 -90 5 -107 46 -163 59 -84 155 -116 270 -92 86 18 236 99 354 190 56 44
104 80 106 80 2 0 6 -27 9 -60 4 -33 13 -73 21 -89 15 -29 80 -92 114 -110 34
-18 125 -24 185 -12 74 16 223 93 318 164 42 31 79 57 82 57 4 0 7 -15 7 -34
0 -74 41 -130 125 -173 44 -23 57 -25 120 -20 38 4 89 13 113 22 102 36 234
118 354 216 59 49 67 53 61 29 -8 -31 16 -114 47 -164 54 -85 165 -123 281
-96 147 34 360 176 581 388 106 102 121 134 65 140 -21 3 -47 -12 -115 -65
-202 -158 -329 -243 -452 -303 -111 -53 -160 -52 -160 5 0 74 272 522 515 850
134 180 137 186 137 245 0 55 -26 110 -77 163 -39 40 -130 97 -155 97 -33 0
-229 -291 -424 -629 -77 -132 -196 -392 -196 -428 0 -32 -294 -245 -426 -309
-70 -35 -102 -45 -131 -42 -34 3 -38 6 -41 33 -4 47 114 280 396 775 262 460
500 842 804 1286 53 78 104 164 114 193 16 49 16 54 -1 97 -21 56 -103 139
-173 177 -29 15 -53 27 -55 27 -2 0 -15 -12 -29 -27z"/>
<path d="M10838 5922 c-39 -43 -88 -152 -130 -291 -34 -114 -29 -129 51 -150
56 -14 56 -14 116 42 17 16 81 67 143 113 125 95 130 105 88 173 -46 72 -156
150 -212 151 -13 0 -36 -16 -56 -38z"/>
<path d="M12350 5929 c-35 -36 -48 -59 -82 -149 -65 -168 -83 -241 -69 -268 5
-10 33 -23 65 -30 l57 -13 62 54 c34 30 106 87 160 126 73 54 97 78 97 95 0
49 -113 171 -187 202 -48 21 -68 17 -103 -17z"/>
</g>
</svg>
